HIERARCHY
ROOT SpineBase
{
  OFFSET 0.000000 0.000000 0.000000
  CHANNELS 6 Xposition Yposition Zposition Zrotation Xrotation Yrotation
  JOINT SpineMid
  {
    OFFSET -0.000000 30.097335 0.000000
    CHANNELS 3 Zrotation Xrotation Yrotation
    JOINT SpineShoulder
    {
      OFFSET -0.492991 22.422765 -0.779401
      CHANNELS 3 Zrotation Xrotation Yrotation
      JOINT Neck
      {
        OFFSET -0.392659 7.447314 -0.378393
        CHANNELS 3 Zrotation Xrotation Yrotation
        JOINT Head
        {
          OFFSET -2.073305 10.406181 2.569725
          CHANNELS 3 Zrotation Xrotation Yrotation
          End Site
          {
            OFFSET 0 0 0
          }
        }
      }
      JOINT ShoulderLeft
      {
        OFFSET -13.155678 -6.996573 6.647981
        CHANNELS 3 Zrotation Xrotation Yrotation
        JOINT ElbowLeft
        {
          OFFSET 11.309525 -15.651570 -17.869233
          CHANNELS 3 Zrotation Xrotation Yrotation
          JOINT WristLeft
          {
            OFFSET 2.541714 -23.543553 -8.919743
            CHANNELS 3 Zrotation Xrotation Yrotation
            JOINT HandLeft
            {
              OFFSET 0.624211 -4.983416 7.522328
              CHANNELS 3 Zrotation Xrotation Yrotation
              JOINT HandTipLeft
              {
                OFFSET 1.366331 -8.023082 -0.653332
                CHANNELS 3 Zrotation Xrotation Yrotation
                End Site
                {
                  OFFSET 0 0 0
                }
              }
              JOINT ThumbLeft
              {
                OFFSET -5.768128 -0.717593 -2.081090
                CHANNELS 3 Zrotation Xrotation Yrotation
                End Site
                {
                  OFFSET 0 0 0
                }
              }
            }
          }
        }
      }
      JOINT ShoulderRight
      {
        OFFSET 2.130447 -4.557064 -11.066100
        CHANNELS 3 Zrotation Xrotation Yrotation
        JOINT ElbowRight
        {
          OFFSET -2.024171 -24.721534 -4.746581
          CHANNELS 3 Zrotation Xrotation Yrotation
          JOINT WristRight
          {
            OFFSET -6.410655 -19.331711 0.087386
            CHANNELS 3 Zrotation Xrotation Yrotation
            JOINT HandRight
            {
              OFFSET 0.133293 -6.879660 1.252467
              CHANNELS 3 Zrotation Xrotation Yrotation
              JOINT HandTipRight
              {
                OFFSET -1.857988 -6.746105 0.930447
                CHANNELS 3 Zrotation Xrotation Yrotation
                End Site
                {
                  OFFSET 0 0 0
                }
              }
              JOINT ThumbRight
              {
                OFFSET 3.310209 -0.313968 0.405962
                CHANNELS 3 Zrotation Xrotation Yrotation
                End Site
                {
                  OFFSET 0 0 0
                }
              }
            }
          }
        }
      }
    }
  }
  JOINT HipLeft
  {
    OFFSET -4.461326 0.281650 -1.662918
    CHANNELS 3 Zrotation Xrotation Yrotation
    JOINT KneeLeft
    {
      OFFSET -5.716152 -25.678331 4.723205
      CHANNELS 3 Zrotation Xrotation Yrotation
      JOINT AnkleLeft
      {
        OFFSET 5.448669 -35.569199 15.063061
        CHANNELS 3 Zrotation Xrotation Yrotation
        JOINT FootLeft
        {
          OFFSET 3.403254 -5.370767 -6.923492
          CHANNELS 3 Zrotation Xrotation Yrotation
          End Site
          {
            OFFSET 0 0 0
          }
        }
      }
    }
  }
  JOINT HipRight
  {
    OFFSET 4.853948 1.091231 -4.598162
    CHANNELS 3 Zrotation Xrotation Yrotation
    JOINT KneeRight
    {
      OFFSET -1.996495 -27.081415 -1.266460
      CHANNELS 3 Zrotation Xrotation Yrotation
      JOINT AnkleRight
      {
        OFFSET 8.199255 -33.437245 4.373486
        CHANNELS 3 Zrotation Xrotation Yrotation
        JOINT FootRight
        {
          OFFSET -2.442222 -8.360163 4.234576
          CHANNELS 3 Zrotation Xrotation Yrotation
          End Site
          {
            OFFSET 0 0 0
          }
        }
      }
    }
  }
}
MOTION
Frames: 13
Frame Time: 0.033333
-28.296232 67.787591 358.293598 0.000000 0.000000 17.489647 -0.000000 0.000000 -17.489647 -0.000000 0.000000 0.000000 -0.000000 0.000000 0.000000 0.000000 0.000000 0.000000 -0.000000 0.000000 0.000000 -0.000000 0.000000 0.000000 -0.000000 0.000000 0.000000 -0.000000 0.000000 0.000000 0.000000 0.000000 0.000000 0.000000 0.000000 0.000000 -0.000000 0.000000 0.000000 -0.000000 0.000000 0.000000 -0.000000 0.000000 0.000000 -0.000000 0.000000 0.000000 0.000000 0.000000 0.000000 0.000000 0.000000 0.000000 -0.000000 0.000000 -17.489647 -0.000000 0.000000 0.000000 -0.000000 0.000000 0.000000 0.000000 0.000000 0.000000 -0.000000 0.000000 -17.489647 -0.000000 0.000000 0.000000 -0.000000 0.000000 0.000000 0.000000 0.000000 0.000000
-28.622198 67.742460 357.966707 -0.199505 0.371241 14.863510 0.097603 -0.409994 -14.862514 -0.809719 0.126092 -0.033617 0.809795 -0.125605 0.035396 0.000000 0.000000 0.000000 1.435421 1.112238 0.206258 -0.630223 -1.235515 -0.183044 -0.369280 -1.620472 -0.749916 1.119251 0.890965 0.534235 0.000000 0.000000 0.000000 0.000000 0.000000 0.000000 0.809795 -0.125605 0.035396 -0.000000 0.000000 0.000000 -0.000000 0.000000 0.000000 0.424441 0.876013 -0.186363 0.000000 0.000000 0.000000 0.000000 0.000000 0.000000 -4.866111 0.397098 -15.665779 9.120999 1.260568 2.555742 -7.910675 -0.331065 3.097292 0.000000 0.000000 0.000000 0.097603 -0.409994 -14.862514 -0.000000 0.000000 0.000000 -3.814022 11.568658 -5.147865 0.000000 0.000000 0.000000
-28.941276 67.702157 357.759826 -0.422602 0.616468 12.710266 -0.223058 0.417956 -12.711532 -0.793654 -0.761015 -0.079173 1.525999 -0.212191 0.069123 0.000000 0.000000 0.000000 2.867039 2.402388 0.386105 -1.360020 -2.604816 -0.373542 -0.895550 -3.561195 -1.745544 2.245765 2.274816 1.273037 0.000000 0.000000 0.000000 0.000000 0.000000 0.000000 2.458329 0.168678 -0.140725 -1.167423 0.530260 -0.096649 -1.009752 -1.256522 0.048493 1.905563 2.033345 -0.158338 0.000000 0.000000 0.000000 0.000000 0.000000 0.000000 -8.068274 0.433251 -14.082425 15.517936 2.303069 4.298071 -14.531593 -0.763105 6.217582 0.000000 0.000000 0.000000 0.276635 -0.694331 -12.706316 -0.000000 0.000000 0.000000 -6.711670 22.311802 -9.441603 0.000000 0.000000 0.000000
-29.253465 67.666684 357.672953 -0.668968 0.735187 11.093134 -0.270315 0.607110 -11.095102 -1.095043 -1.015663 -0.118111 2.146380 -0.259399 0.100141 0.000000 0.000000 0.000000 4.293811 3.871014 0.531351 -2.191220 -4.107550 -0.577519 -1.596319 -5.796885 -2.993052 3.363908 4.143828 2.194935 0.000000 0.000000 0.000000 0.000000 0.000000 0.000000 3.413293 0.210472 -0.181062 -1.557647 0.782885 -0.140887 -1.359173 -2.089837 0.055354 2.359313 3.271599 -0.294496 0.000000 0.000000 0.000000 0.000000 0.000000 0.000000 -9.484850 0.328741 -12.775217 19.239636 2.959839 5.389853 -19.857276 -1.405795 9.170048 0.000000 0.000000 0.000000 1.808091 -0.915909 -11.138627 -0.245728 -0.208637 0.204147 -9.722281 30.710196 -12.788171 0.000000 0.000000 0.000000
-29.558765 67.636040 357.706089 -0.938199 0.727300 10.053259 -0.265662 0.790307 -10.056437 -1.331079 -1.185943 -0.151545 2.669169 -0.267030 0.127613 0.000000 0.000000 0.000000 5.715477 5.516958 0.632815 -2.744280 -4.750656 -0.797860 -2.856239 -9.284160 -4.510158 4.444195 6.484318 3.279413 0.000000 0.000000 0.000000 0.000000 0.000000 0.000000 4.176704 0.221558 -0.201282 -1.815105 1.038183 -0.185099 -1.601104 -3.072532 0.057261 2.475023 4.660413 -0.460200 0.000000 0.000000 0.000000 0.000000 0.000000 0.000000 -9.083311 0.249594 -11.754097 20.359598 3.151663 5.941072 -23.889556 -2.297443 11.817783 0.000000 0.000000 0.000000 2.974876 -1.250195 -10.105203 -1.048564 -0.036120 0.251188 -11.314803 36.075035 -14.891422 0.000000 0.000000 0.000000
-29.857177 67.610224 357.859235 -1.229819 0.593096 9.611176 -0.202974 0.969499 -9.617095 -1.500844 -1.271769 -0.176720 3.093016 -0.235022 0.150915 0.000000 0.000000 0.000000 7.132565 7.336930 0.680351 -3.681264 -6.265179 -1.034076 -4.049955 -12.224362 -6.291684 5.440599 9.279960 4.511710 0.000000 0.000000 0.000000 0.000000 0.000000 0.000000 4.744415 0.201262 -0.201440 -1.937772 1.301053 -0.230822 -1.732489 -4.214001 0.059625 2.246967 6.204466 -0.642383 0.000000 0.000000 0.000000 0.000000 0.000000 0.000000 -6.866806 0.283208 -11.030880 18.925606 2.852814 5.985614 -26.624083 -3.436406 14.094158 0.000000 0.000000 0.000000 4.358235 -1.607119 -9.665874 -2.171499 0.252641 0.288645 -12.535104 38.423773 -15.883960 0.000000 0.000000 0.000000
-29.774085 67.584825 357.927451 -1.145679 0.264733 9.458010 0.058527 1.490790 -9.449717 -1.825331 -1.397676 -0.200812 2.370490 0.426189 0.499027 0.000000 0.000000 0.000000 8.787059 10.068751 0.663966 -5.194452 -8.669761 -1.461133 -6.254879 -16.894671 -9.445135 5.475813 13.919126 6.995942 0.000000 0.000000 0.000000 0.000000 0.000000 0.000000 4.734678 0.075524 -0.181173 -1.643535 1.568200 -0.327725 -1.719155 -6.740815 0.099022 3.560192 8.553479 -0.664774 0.000000 0.000000 0.000000 0.000000 0.000000 0.000000 -2.223589 0.714887 -10.209645 14.612513 2.334361 5.755332 -29.598319 -7.040524 15.183194 0.000000 0.000000 0.000000 4.461360 -1.828471 -9.490960 -2.587967 0.414304 0.152655 -12.940024 32.367031 -13.681747 0.000000 0.000000 0.000000
-29.607536 67.569896 358.152201 -1.056245 -0.029233 11.926618 0.456047 1.811365 -11.910716 -2.135954 -1.478744 -0.220654 2.342076 0.562583 0.524192 0.000000 0.000000 0.000000 10.263503 12.663174 0.529414 -6.647957 -10.895502 -1.885878 -8.341563 -20.934936 -12.295401 7.460452 18.089885 8.243917 0.000000 0.000000 0.000000 0.000000 0.000000 0.000000 4.560998 -0.348137 -0.118488 -1.319849 2.293283 -0.487157 -0.733951 -9.893296 0.415883 -0.408166 10.031898 -0.423950 0.000000 0.000000 0.000000 0.000000 0.000000 0.000000 3.556671 1.123712 -11.944527 6.869371 0.450394 4.245081 -29.364581 -6.490100 19.991690 0.000000 0.000000 0.000000 4.482967 -2.927036 -11.870314 -3.934968 1.965140 0.106362 -13.852027 33.908063 -14.687624 0.000000 0.000000 0.000000
-30.279591 67.581871 359.139447 -2.029262 -0.826374 13.561515 1.070106 1.889500 -13.583190 -1.993933 -1.170683 -0.204545 3.426350 -0.080029 0.172039 0.000000 0.000000 0.000000 11.826888 14.992632 0.315563 -7.853819 -12.672151 -2.238578 -9.810714 -23.297623 -14.221855 9.748853 20.986739 8.505693 0.000000 0.000000 0.000000 0.000000 0.000000 0.000000 4.685329 -0.554696 -0.023604 -1.064784 2.898389 -0.601354 0.179796 -11.635836 0.705011 -5.090154 13.086325 -0.625103 0.000000 0.000000 0.000000 0.000000 0.000000 0.000000 10.006157 0.874853 -12.799142 -0.985312 -0.914786 2.142171 -24.430803 -6.218938 18.053322 0.000000 0.000000 0.000000 7.930645 -2.770663 -13.633686 -6.334220 1.639207 0.265116 -14.630983 31.905021 -14.280819 0.000000 0.000000 0.000000
-30.380002 67.497705 359.448967 -1.908531 -0.628933 14.514891 0.379722 1.354442 -14.554882 -1.811156 -1.034706 -0.198831 3.691063 0.269504 0.192826 0.000000 0.000000 0.000000 12.910998 16.561456 0.077276 -8.630478 -13.757308 -2.426895 -10.799592 -24.997581 -15.511103 5.907133 26.325681 11.621496 0.000000 0.000000 0.000000 0.000000 0.000000 0.000000 4.925053 0.053066 -0.029659 -1.030179 2.144201 -0.421618 0.010490 -7.630746 0.567174 -5.729429 11.086918 -1.329839 0.000000 0.000000 0.000000 0.000000 0.000000 0.000000 15.891198 0.636934 -12.998761 -10.715946 -3.892080 -0.751952 -21.902151 -6.799695 21.985400 0.000000 0.000000 0.000000 8.700594 -4.716497 -14.396634 -7.699651 2.998310 0.339238 -14.362192 27.885032 -13.156544 0.000000 0.000000 0.000000
-31.079539 67.405211 360.274592 -2.654253 -1.281301 14.851668 0.302267 1.235272 -14.948273 -1.465800 -0.812260 -0.190215 4.142208 0.838071 0.224090 0.000000 0.000000 0.000000 13.559457 17.235368 -0.119242 -8.802542 -13.924454 -2.365383 -10.433330 -25.762746 -15.037982 1.556929 27.678477 13.482449 0.000000 0.000000 0.000000 0.000000 0.000000 0.000000 5.499478 0.604180 -0.034174 -1.154618 1.569479 -0.201433 -0.974846 -4.792776 0.186702 -3.840313 6.892290 -0.973036 0.000000 0.000000 0.000000 0.000000 0.000000 0.000000 21.058560 0.390013 -12.703806 -17.786984 -4.609753 -3.042800 -19.521748 -7.269196 23.726152 0.000000 0.000000 0.000000 11.582502 -4.444271 -14.861862 -9.689041 2.559565 0.478939 -13.554388 26.872827 -12.689117 0.000000 0.000000 0.000000
-31.989350 67.270559 361.092954 -3.565931 -1.796271 14.096717 0.030740 0.880272 -14.274217 -0.971069 -0.515986 -0.179242 5.878309 1.585173 -0.040058 0.000000 0.000000 0.000000 13.508449 16.573878 -0.196400 -8.199047 -12.924861 -1.989519 -9.084320 -24.212039 -13.319683 0.447918 26.811937 12.824691 0.000000 0.000000 0.000000 0.000000 0.000000 0.000000 6.361194 1.152009 -0.070604 -1.645622 0.320307 0.293854 -2.620288 -0.218543 -0.486392 1.150988 2.948260 -0.431547 0.000000 0.000000 0.000000 0.000000 0.000000 0.000000 24.839421 0.617151 -11.648406 -22.576402 -5.903383 -4.780640 -19.234431 -1.857481 30.463255 0.000000 0.000000 0.000000 14.838475 -3.357112 -14.387943 -11.651077 1.330279 0.579722 -16.196751 23.394654 -12.561701 0.000000 0.000000 0.000000
-31.695556 67.175403 360.807963 -2.955134 -1.256740 14.236610 -0.777273 0.570314 -14.399628 -1.234267 -0.926007 -0.232802 6.626970 1.854700 -0.159003 0.000000 0.000000 0.000000 13.876148 16.904892 -0.256316 -8.165726 -12.862550 -1.964477 -8.826175 -24.246181 -12.942772 -0.458616 26.391991 12.882271 0.000000 0.000000 0.000000 0.000000 0.000000 0.000000 6.889281 1.957103 -0.143979 -1.812815 -0.112462 0.355128 -2.744460 2.490083 -0.393562 2.720178 -1.277672 0.178286 0.000000 0.000000 0.000000 0.000000 0.000000 0.000000 26.890040 0.684272 -11.457563 -29.596839 -9.243227 -8.053230 -17.518101 -4.516202 35.450449 0.000000 0.000000 0.000000 13.518212 -3.621956 -14.412442 -10.709415 2.340095 0.818527 -20.953137 36.950554 -17.623708 0.000000 0.000000 0.000000
